<svg
width="472"
height="54"
viewBox="0 0 472 54"
fill="none"
xmlns="http://www.w3.org/2000/svg"
>
<rect
x="168.784"
y="43.27"
width="64"
height="33"
rx="16.5"
transform="rotate(-180 168.784 43.27)"
stroke="url(#paint0_linear_243_316)"
stroke-width="6"
/>
<g filter="url(#filter0_di_243_316)">
<circle cx="152.284" cy="26.77" r="16.5" fill="white" />
</g>
<path
d="M427.957 46.27V7.77002H436.922L458.152 33.4H453.917V7.77002H464.587V46.27H455.622L434.392 20.64H438.627V46.27H427.957Z"
fill="#101438"
/>
<path
d="M390.958 47.04C387.878 47.04 385.037 46.545 382.433 45.555C379.83 44.565 377.557 43.1717 375.613 41.375C373.707 39.5417 372.222 37.415 371.158 34.995C370.095 32.575 369.563 29.9167 369.563 27.02C369.563 24.1233 370.095 21.465 371.158 19.045C372.222 16.625 373.707 14.5167 375.613 12.72C377.557 10.8867 379.83 9.475 382.433 8.485C385.037 7.495 387.878 7 390.958 7C394.075 7 396.917 7.495 399.483 8.485C402.087 9.475 404.342 10.8867 406.248 12.72C408.155 14.5167 409.64 16.625 410.703 19.045C411.803 21.465 412.353 24.1233 412.353 27.02C412.353 29.9167 411.803 32.5933 410.703 35.05C409.64 37.47 408.155 39.5783 406.248 41.375C404.342 43.1717 402.087 44.565 399.483 45.555C396.917 46.545 394.075 47.04 390.958 47.04ZM390.958 38.02C392.425 38.02 393.782 37.7633 395.028 37.25C396.312 36.7367 397.412 36.0033 398.328 35.05C399.282 34.06 400.015 32.8867 400.528 31.53C401.078 30.1733 401.353 28.67 401.353 27.02C401.353 25.3333 401.078 23.83 400.528 22.51C400.015 21.1533 399.282 19.9983 398.328 19.045C397.412 18.055 396.312 17.3033 395.028 16.79C393.782 16.2767 392.425 16.02 390.958 16.02C389.492 16.02 388.117 16.2767 386.833 16.79C385.587 17.3033 384.487 18.055 383.533 19.045C382.617 19.9983 381.883 21.1533 381.333 22.51C380.82 23.83 380.563 25.3333 380.563 27.02C380.563 28.67 380.82 30.1733 381.333 31.53C381.883 32.8867 382.617 34.06 383.533 35.05C384.487 36.0033 385.587 36.7367 386.833 37.25C388.117 37.7633 389.492 38.02 390.958 38.02Z"
fill="#101438"
/>
<path
d="M343.005 46.27V7.77002H353.895V46.27H343.005Z"
fill="#101438"
/>
<path
d="M306.388 46.27V16.405H294.563V7.77002H329.048V16.405H317.278V46.27H306.388Z"
fill="#101438"
/>
<path
d="M261.732 47.04C258.652 47.04 255.81 46.545 253.207 45.555C250.604 44.565 248.33 43.1717 246.387 41.375C244.48 39.5417 242.995 37.415 241.932 34.995C240.869 32.575 240.337 29.9167 240.337 27.02C240.337 24.1233 240.869 21.465 241.932 19.045C242.995 16.625 244.48 14.5167 246.387 12.72C248.33 10.8867 250.604 9.475 253.207 8.485C255.81 7.495 258.652 7 261.732 7C264.849 7 267.69 7.495 270.257 8.485C272.86 9.475 275.115 10.8867 277.022 12.72C278.929 14.5167 280.414 16.625 281.477 19.045C282.577 21.465 283.127 24.1233 283.127 27.02C283.127 29.9167 282.577 32.5933 281.477 35.05C280.414 37.47 278.929 39.5783 277.022 41.375C275.115 43.1717 272.86 44.565 270.257 45.555C267.69 46.545 264.849 47.04 261.732 47.04ZM261.732 38.02C263.199 38.02 264.555 37.7633 265.802 37.25C267.085 36.7367 268.185 36.0033 269.102 35.05C270.055 34.06 270.789 32.8867 271.302 31.53C271.852 30.1733 272.127 28.67 272.127 27.02C272.127 25.3333 271.852 23.83 271.302 22.51C270.789 21.1533 270.055 19.9983 269.102 19.045C268.185 18.055 267.085 17.3033 265.802 16.79C264.555 16.2767 263.199 16.02 261.732 16.02C260.265 16.02 258.89 16.2767 257.607 16.79C256.36 17.3033 255.26 18.055 254.307 19.045C253.39 19.9983 252.657 21.1533 252.107 22.51C251.594 23.83 251.337 25.3333 251.337 27.02C251.337 28.67 251.594 30.1733 252.107 31.53C252.657 32.8867 253.39 34.06 254.307 35.05C255.26 36.0033 256.36 36.7367 257.607 37.25C258.89 37.7633 260.265 38.02 261.732 38.02Z"
fill="#101438"
/>
<path
d="M179.941 46.27V7.77002H188.906L204.856 33.95H200.126L215.636 7.77002H224.601L224.711 46.27H214.701L214.591 23.005H216.296L204.691 42.475H199.851L187.916 23.005H190.006V46.27H179.941Z"
fill="#101438"
/>
<path
d="M57.9146 46.27V7.77002H75.5146C79.0346 7.77002 82.0596 8.33835 84.5896 9.47502C87.1562 10.6117 89.1362 12.2617 90.5296 14.425C91.9229 16.5517 92.6196 19.0817 92.6196 22.015C92.6196 24.9117 91.9229 27.4234 90.5296 29.55C89.1362 31.64 87.1562 33.2534 84.5896 34.39C82.0596 35.49 79.0346 36.04 75.5146 36.04H63.9646L68.8046 31.475V46.27H57.9146ZM81.7296 46.27L72.1596 32.245H83.7646L93.3896 46.27H81.7296ZM68.8046 32.63L63.9646 27.625H74.8546C77.1279 27.625 78.8146 27.13 79.9146 26.14C81.0512 25.15 81.6196 23.775 81.6196 22.015C81.6196 20.2184 81.0512 18.825 79.9146 17.835C78.8146 16.845 77.1279 16.35 74.8546 16.35H63.9646L68.8046 11.345V32.63Z"
fill="#101438"
/>
<path
d="M8 46.27V7.77002H25.6C29.12 7.77002 32.145 8.33835 34.675 9.47502C37.2417 10.6117 39.2217 12.2617 40.615 14.425C42.0083 16.5517 42.705 19.0817 42.705 22.015C42.705 24.9117 42.0083 27.4234 40.615 29.55C39.2217 31.6767 37.2417 33.3267 34.675 34.5C32.145 35.6367 29.12 36.205 25.6 36.205H14.05L18.89 31.475V46.27H8ZM18.89 32.63L14.05 27.625H24.94C27.2133 27.625 28.9 27.13 30 26.14C31.1367 25.15 31.705 23.775 31.705 22.015C31.705 20.2184 31.1367 18.825 30 17.835C28.9 16.845 27.2133 16.35 24.94 16.35H14.05L18.89 11.345V32.63Z"
fill="#101438"
/>
<defs>
<filter
id="filter0_di_243_316"
x="131.784"
y="10.27"
width="41"
height="41"
filterUnits="userSpaceOnUse"
color-interpolation-filters="sRGB"
>
<feFlood flood-opacity="0" result="BackgroundImageFix" />
<feColorMatrix
in="SourceAlpha"
type="matrix"
values="0 0 0 0 0 0 0 0 0 0 0 0 0 0 0 0 0 0 127 0"
result="hardAlpha"
/>
<feOffset dy="4" />
<feGaussianBlur stdDeviation="2" />
<feComposite in2="hardAlpha" operator="out" />
<feColorMatrix
type="matrix"
values="0 0 0 0 0 0 0 0 0 0 0 0 0 0 0 0 0 0 0.25 0"
/>
<feBlend
mode="normal"
in2="BackgroundImageFix"
result="effect1_dropShadow_243_316"
/>
<feBlend
mode="normal"
in="SourceGraphic"
in2="effect1_dropShadow_243_316"
result="shape"
/>
<feColorMatrix
in="SourceAlpha"
type="matrix"
values="0 0 0 0 0 0 0 0 0 0 0 0 0 0 0 0 0 0 127 0"
result="hardAlpha"
/>
<feOffset dx="3" dy="3" />
<feGaussianBlur stdDeviation="8.5" />
<feComposite
in2="hardAlpha"
operator="arithmetic"
k2="-1"
k3="1"
/>
<feColorMatrix
type="matrix"
values="0 0 0 0 0 0 0 0 0 0 0 0 0 0 0 0 0 0 0.08 0"
/>
<feBlend
mode="normal"
in2="shape"
result="effect2_innerShadow_243_316"
/>
</filter>
<linearGradient
id="paint0_linear_243_316"
x1="171.128"
y1="65.77"
x2="241.78"
y2="64.7726"
gradientUnits="userSpaceOnUse"
>
<stop stop-color="#D3C4FE" />
<stop offset="1" stop-color="white" />
</linearGradient>
</defs>
</svg>